<?xml version="1.0" encoding="utf-8" ?>
<svg baseProfile="tiny" height="600" version="1.2" width="1080" xmlns="http://www.w3.org/2000/svg" xmlns:ev="http://www.w3.org/2001/xml-events" xmlns:xlink="http://www.w3.org/1999/xlink"><defs /><path d="M 322,347 L 323,347 Z" fill="none" stroke="black" stroke-width="1" /><path d="M 285,241 L 284,242 L 279,242 L 278,243 L 274,243 L 273,244 L 270,244 L 269,245 L 267,245 L 266,246 L 264,246 L 263,247 L 261,247 L 260,248 L 259,248 L 258,249 L 256,249 L 255,250 L 254,250 L 253,251 L 252,251 L 251,252 L 250,252 L 249,253 L 248,253 L 247,254 L 246,254 L 244,256 L 243,256 L 242,257 L 241,257 L 239,259 L 238,259 L 236,261 L 235,261 L 232,264 L 231,264 L 225,270 L 224,270 L 220,274 L 220,275 L 214,281 L 214,282 L 211,285 L 211,286 L 209,288 L 209,289 L 207,291 L 207,292 L 206,293 L 206,294 L 204,296 L 204,297 L 203,298 L 203,299 L 202,300 L 202,301 L 201,302 L 201,303 L 200,304 L 200,305 L 199,306 L 199,308 L 198,309 L 198,310 L 197,311 L 197,313 L 196,314 L 196,316 L 195,317 L 195,319 L 194,320 L 194,323 L 193,324 L 193,328 L 192,329 L 192,334 L 191,335 L 191,348 L 190,349 L 190,350 L 191,351 L 191,364 L 192,365 L 192,370 L 193,371 L 193,375 L 194,376 L 194,379 L 195,380 L 195,382 L 196,383 L 196,385 L 197,386 L 197,388 L 198,389 L 198,390 L 199,391 L 199,393 L 200,394 L 200,395 L 201,396 L 201,397 L 202,398 L 202,399 L 203,400 L 203,401 L 204,402 L 204,403 L 206,405 L 206,406 L 207,407 L 207,408 L 209,410 L 209,411 L 211,413 L 211,414 L 214,417 L 214,418 L 221,425 L 221,426 L 223,428 L 224,428 L 231,435 L 232,435 L 235,438 L 236,438 L 238,440 L 239,440 L 241,442 L 242,442 L 243,443 L 244,443 L 246,445 L 247,445 L 248,446 L 249,446 L 250,447 L 251,447 L 252,448 L 253,448 L 254,449 L 255,449 L 256,450 L 258,450 L 259,451 L 260,451 L 261,452 L 263,452 L 264,453 L 266,453 L 267,454 L 269,454 L 270,455 L 273,455 L 274,456 L 278,456 L 279,457 L 284,457 L 285,458 L 299,458 L 300,459 L 1079,459 L 1079,350 L 300,350 L 299,349 L 300,348 L 310,348 L 311,347 L 314,347 L 315,346 L 317,346 L 318,345 L 320,345 L 321,344 L 322,344 L 323,343 L 324,343 L 325,342 L 326,342 L 327,341 L 328,341 L 330,339 L 331,339 L 334,336 L 335,336 L 341,330 L 341,329 L 344,326 L 344,325 L 346,323 L 346,322 L 347,321 L 347,320 L 348,319 L 348,318 L 349,317 L 349,316 L 350,315 L 350,313 L 351,312 L 351,310 L 352,309 L 352,306 L 353,305 L 353,284 L 352,283 L 352,280 L 351,279 L 351,277 L 350,276 L 350,274 L 349,273 L 349,272 L 348,271 L 348,270 L 347,269 L 347,268 L 346,267 L 346,266 L 344,264 L 344,263 L 341,260 L 341,259 L 335,253 L 334,253 L 331,250 L 330,250 L 328,248 L 327,248 L 326,247 L 325,247 L 324,246 L 323,246 L 322,245 L 321,245 L 320,244 L 318,244 L 317,243 L 315,243 L 314,242 L 311,242 L 310,241 Z" fill="none" stroke="black" stroke-width="1" /><path d="M 0,80 L 0,189 L 311,189 L 312,190 L 317,190 L 318,191 L 321,191 L 322,192 L 324,192 L 325,193 L 327,193 L 328,194 L 329,194 L 330,195 L 332,195 L 333,196 L 334,196 L 335,197 L 336,197 L 337,198 L 338,198 L 339,199 L 340,199 L 342,201 L 343,201 L 345,203 L 346,203 L 349,206 L 350,206 L 363,219 L 363,220 L 366,223 L 366,224 L 368,226 L 368,227 L 370,229 L 370,230 L 371,231 L 371,232 L 372,233 L 372,234 L 373,235 L 373,236 L 374,237 L 374,239 L 375,240 L 375,241 L 376,242 L 376,244 L 377,245 L 377,247 L 378,248 L 378,251 L 379,252 L 379,257 L 380,258 L 380,281 L 379,282 L 379,287 L 378,288 L 378,291 L 377,292 L 377,294 L 376,295 L 376,297 L 375,298 L 375,299 L 374,300 L 374,302 L 373,303 L 373,304 L 372,305 L 372,306 L 371,307 L 371,308 L 370,309 L 370,310 L 368,312 L 368,313 L 366,315 L 366,316 L 363,319 L 363,320 L 350,333 L 349,333 L 346,336 L 345,336 L 343,338 L 342,338 L 340,340 L 339,340 L 338,341 L 337,341 L 336,342 L 335,342 L 334,343 L 333,343 L 332,344 L 330,344 L 329,345 L 328,345 L 327,346 L 325,346 L 328,346 L 329,345 L 332,345 L 333,344 L 336,344 L 337,343 L 339,343 L 340,342 L 342,342 L 343,341 L 345,341 L 346,340 L 348,340 L 349,339 L 350,339 L 351,338 L 353,338 L 354,337 L 355,337 L 356,336 L 357,336 L 358,335 L 359,335 L 360,334 L 361,334 L 362,333 L 363,333 L 364,332 L 365,332 L 367,330 L 368,330 L 369,329 L 370,329 L 372,327 L 373,327 L 375,325 L 376,325 L 378,323 L 379,323 L 382,320 L 383,320 L 388,315 L 389,315 L 400,304 L 400,303 L 405,298 L 405,297 L 408,294 L 408,293 L 410,291 L 410,290 L 412,288 L 412,287 L 414,285 L 414,284 L 415,283 L 415,282 L 417,280 L 417,279 L 418,278 L 418,277 L 419,276 L 419,275 L 420,274 L 420,273 L 421,272 L 421,271 L 422,270 L 422,269 L 423,268 L 423,266 L 424,265 L 424,264 L 425,263 L 425,261 L 426,260 L 426,258 L 427,257 L 427,255 L 428,254 L 428,252 L 429,251 L 429,248 L 430,247 L 430,244 L 431,243 L 431,239 L 432,238 L 432,232 L 433,231 L 433,198 L 432,197 L 432,191 L 431,190 L 431,186 L 430,185 L 430,182 L 429,181 L 429,178 L 428,177 L 428,175 L 427,174 L 427,172 L 426,171 L 426,169 L 425,168 L 425,166 L 424,165 L 424,164 L 423,163 L 423,161 L 422,160 L 422,159 L 421,158 L 421,157 L 420,156 L 420,155 L 419,154 L 419,153 L 418,152 L 418,151 L 417,150 L 417,149 L 415,147 L 415,146 L 414,145 L 414,144 L 412,142 L 412,141 L 410,139 L 410,138 L 408,136 L 408,135 L 405,132 L 405,131 L 400,126 L 400,125 L 389,114 L 388,114 L 383,109 L 382,109 L 379,106 L 378,106 L 376,104 L 375,104 L 373,102 L 372,102 L 370,100 L 369,100 L 368,99 L 367,99 L 365,97 L 364,97 L 363,96 L 362,96 L 361,95 L 360,95 L 359,94 L 358,94 L 357,93 L 356,93 L 355,92 L 354,92 L 353,91 L 351,91 L 350,90 L 349,90 L 348,89 L 346,89 L 345,88 L 343,88 L 342,87 L 340,87 L 339,86 L 337,86 L 336,85 L 333,85 L 332,84 L 329,84 L 328,83 L 324,83 L 323,82 L 317,82 L 316,81 L 300,81 L 299,80 Z" fill="none" stroke="black" stroke-width="1" /></svg>